ply
format ascii 1.0
comment Created by Blender 2.78 (sub 0) - www.blender.org, source file: ''
element vertex 495
property float x
property float y
property float z
property float nx
property float ny
property float nz
element face 384
property list uchar uint vertex_indices
end_header
-0.750000 -0.750000 -1.000000 0.000000 0.000000 -1.000000
-0.750000 -1.000000 -1.000000 0.000000 0.000000 -1.000000
-1.000000 -1.000000 -1.000000 0.000000 0.000000 -1.000000
-1.000000 -0.750000 -1.000000 0.000000 0.000000 -1.000000
-0.750000 -0.750000 1.000000 0.000000 -0.000000 1.000000
-1.000000 -0.750000 1.000000 0.000000 -0.000000 1.000000
-1.000000 -1.000000 1.000000 0.000000 -0.000000 1.000000
-0.750000 -1.000000 1.000000 0.000000 -0.000000 1.000000
1.000000 -0.750000 0.750000 1.000000 -0.000001 0.000000
1.000000 -0.750001 1.000000 1.000000 -0.000001 0.000000
0.999999 -1.000001 1.000000 1.000000 -0.000001 0.000000
0.999999 -1.000000 0.750000 1.000000 -0.000001 0.000000
-0.750000 -1.000000 0.750000 -0.000000 -1.000000 -0.000000
-0.750000 -1.000000 1.000000 -0.000000 -1.000000 -0.000000
-1.000000 -1.000000 1.000000 -0.000000 -1.000000 -0.000000
-1.000000 -1.000000 0.750000 -0.000000 -1.000000 -0.000000
-1.000000 0.750000 0.750000 -1.000000 0.000000 -0.000000
-1.000000 0.750000 1.000000 -1.000000 0.000000 -0.000000
-1.000000 1.000000 1.000000 -1.000000 0.000000 -0.000000
-1.000000 1.000000 0.750000 -1.000000 0.000000 -0.000000
-0.750000 1.000000 -0.750000 0.000000 1.000000 0.000000
-0.750000 1.000000 -1.000000 0.000000 1.000000 0.000000
-1.000000 1.000000 -1.000000 0.000000 1.000000 0.000000
-1.000000 1.000000 -0.750000 0.000000 1.000000 0.000000
-0.750000 1.000000 0.250000 0.000000 1.000000 0.000000
-0.750000 1.000000 0.000000 0.000000 1.000000 0.000000
-1.000000 1.000000 0.000000 0.000000 1.000000 0.000000
-1.000000 1.000000 0.250000 0.000000 1.000000 0.000000
0.250000 1.000000 0.250000 0.000000 1.000000 0.000000
0.250000 1.000000 0.000000 0.000000 1.000000 0.000000
0.000000 1.000000 0.000000 0.000000 1.000000 0.000000
0.000000 1.000000 0.250000 0.000000 1.000000 0.000000
0.250000 1.000000 -0.750000 0.000000 1.000000 0.000000
0.250000 1.000000 -1.000000 0.000000 1.000000 0.000000
0.000000 1.000000 -1.000000 0.000000 1.000000 0.000000
0.000000 1.000000 -0.750000 0.000000 1.000000 0.000000
-1.000000 0.750000 -0.250000 -1.000000 0.000000 0.000000
-1.000000 0.750000 0.000000 -1.000000 0.000000 0.000000
-1.000000 1.000000 0.000000 -1.000000 0.000000 0.000000
-1.000000 1.000000 -0.250000 -1.000000 0.000000 0.000000
-1.000000 -0.250000 -0.250000 -1.000000 -0.000000 0.000000
-1.000000 -0.250000 0.000000 -1.000000 -0.000000 0.000000
-1.000000 0.000000 0.000000 -1.000000 -0.000000 0.000000
-1.000000 0.000000 -0.250000 -1.000000 -0.000000 0.000000
-1.000000 -0.250000 0.750000 -1.000000 0.000000 -0.000000
-1.000000 -0.250000 1.000000 -1.000000 0.000000 -0.000000
-1.000000 0.000000 1.000000 -1.000000 0.000000 -0.000000
-1.000000 0.000000 0.750000 -1.000000 0.000000 -0.000000
-0.750000 -1.000000 -0.250000 -0.000000 -1.000000 0.000000
-0.750000 -1.000000 0.000000 -0.000000 -1.000000 0.000000
-1.000000 -1.000000 0.000000 -0.000000 -1.000000 0.000000
-1.000000 -1.000000 -0.250000 -0.000000 -1.000000 0.000000
0.250000 -1.000000 -0.250000 0.000000 -1.000000 0.000000
0.250000 -1.000000 0.000000 0.000000 -1.000000 0.000000
-0.000000 -1.000000 0.000000 0.000000 -1.000000 0.000000
-0.000000 -1.000000 -0.250000 0.000000 -1.000000 0.000000
0.249999 -1.000000 0.750000 -0.000000 -1.000000 -0.000000
0.249999 -1.000000 1.000000 -0.000000 -1.000000 -0.000000
-0.000001 -1.000000 1.000000 -0.000000 -1.000000 -0.000000
-0.000000 -1.000000 0.750000 -0.000000 -1.000000 -0.000000
1.000000 -0.750000 -0.250000 1.000000 -0.000000 0.000000
1.000000 -0.750000 0.000000 1.000000 -0.000000 0.000000
1.000000 -1.000000 0.000000 1.000000 -0.000000 0.000000
1.000000 -1.000000 -0.250000 1.000000 -0.000000 0.000000
1.000000 0.250000 -0.250000 1.000000 -0.000000 0.000000
1.000000 0.250000 0.000000 1.000000 -0.000000 0.000000
1.000000 -0.000000 0.000000 1.000000 -0.000000 0.000000
1.000000 -0.000000 -0.250000 1.000000 -0.000000 0.000000
1.000000 0.250000 0.750000 1.000000 -0.000000 -0.000000
1.000000 0.249999 1.000000 1.000000 -0.000000 -0.000000
1.000000 -0.000001 1.000000 1.000000 -0.000000 -0.000000
1.000000 -0.000000 0.750000 1.000000 -0.000000 -0.000000
0.250000 -0.750000 1.000000 0.000000 -0.000000 1.000000
-0.000000 -0.750000 1.000000 0.000000 -0.000000 1.000000
-0.000001 -1.000000 1.000000 0.000000 -0.000000 1.000000
0.249999 -1.000000 1.000000 0.000000 -0.000000 1.000000
0.250000 0.250000 1.000000 0.000000 -0.000000 1.000000
-0.000000 0.250000 1.000000 0.000000 -0.000000 1.000000
-0.000000 -0.000000 1.000000 0.000000 -0.000000 1.000000
0.250000 -0.000000 1.000000 0.000000 -0.000000 1.000000
-0.750000 0.250000 1.000000 0.000000 -0.000000 1.000000
-1.000000 0.250000 1.000000 0.000000 -0.000000 1.000000
-1.000000 0.000000 1.000000 0.000000 -0.000000 1.000000
-0.750000 0.000000 1.000000 0.000000 -0.000000 1.000000
-0.750000 0.250000 -1.000000 0.000000 0.000000 -1.000000
-0.750000 0.000000 -1.000000 0.000000 0.000000 -1.000000
-1.000000 0.000000 -1.000000 0.000000 0.000000 -1.000000
-1.000000 0.250000 -1.000000 0.000000 0.000000 -1.000000
0.250000 0.250000 -1.000000 0.000000 0.000000 -1.000000
0.250000 0.000000 -1.000000 0.000000 0.000000 -1.000000
0.000000 0.000000 -1.000000 0.000000 0.000000 -1.000000
0.000000 0.250000 -1.000000 0.000000 0.000000 -1.000000
0.250000 -0.750000 -1.000000 0.000000 0.000000 -1.000000
0.250000 -1.000000 -1.000000 0.000000 0.000000 -1.000000
0.000000 -1.000000 -1.000000 0.000000 0.000000 -1.000000
0.000000 -0.750000 -1.000000 0.000000 0.000000 -1.000000
0.250000 -0.250000 -1.000000 0.000000 0.000000 -1.000000
0.250000 -0.500000 -1.000000 0.000000 0.000000 -1.000000
0.000000 -0.500000 -1.000000 0.000000 0.000000 -1.000000
0.000000 -0.250000 -1.000000 0.000000 0.000000 -1.000000
0.750000 -0.250000 -1.000000 0.000000 0.000000 -1.000000
0.750000 -0.500000 -1.000000 0.000000 0.000000 -1.000000
0.500000 -0.500000 -1.000000 0.000000 0.000000 -1.000000
0.500000 -0.250000 -1.000000 0.000000 0.000000 -1.000000
0.750000 -0.750000 -1.000000 0.000000 0.000000 -1.000000
0.750000 -1.000000 -1.000000 0.000000 0.000000 -1.000000
0.500000 -1.000000 -1.000000 0.000000 0.000000 -1.000000
0.500000 -0.750000 -1.000000 0.000000 0.000000 -1.000000
0.250000 0.750000 -1.000000 0.000000 0.000000 -1.000000
0.250000 0.500000 -1.000000 0.000000 0.000000 -1.000000
0.000000 0.500000 -1.000000 0.000000 0.000000 -1.000000
0.000000 0.750000 -1.000000 0.000000 0.000000 -1.000000
0.750000 0.750000 -1.000000 0.000000 0.000000 -1.000000
0.750000 0.500000 -1.000000 0.000000 0.000000 -1.000000
0.500000 0.500000 -1.000000 0.000000 0.000000 -1.000000
0.500000 0.750000 -1.000000 0.000000 0.000000 -1.000000
0.750000 0.250000 -1.000000 0.000000 0.000000 -1.000000
0.750000 -0.000000 -1.000000 0.000000 0.000000 -1.000000
0.500000 0.000000 -1.000000 0.000000 0.000000 -1.000000
0.500000 0.250000 -1.000000 0.000000 0.000000 -1.000000
-0.750000 0.750000 -1.000000 0.000000 0.000000 -1.000000
-0.750000 0.500000 -1.000000 0.000000 0.000000 -1.000000
-1.000000 0.500000 -1.000000 0.000000 0.000000 -1.000000
-1.000000 0.750000 -1.000000 0.000000 0.000000 -1.000000
-0.250000 0.750000 -1.000000 0.000000 0.000000 -1.000000
-0.250000 0.500000 -1.000000 0.000000 0.000000 -1.000000
-0.500000 0.500000 -1.000000 0.000000 0.000000 -1.000000
-0.500000 0.750000 -1.000000 0.000000 0.000000 -1.000000
-0.250000 0.250000 -1.000000 0.000000 0.000000 -1.000000
-0.250000 0.000000 -1.000000 0.000000 0.000000 -1.000000
-0.500000 0.000000 -1.000000 0.000000 0.000000 -1.000000
-0.500000 0.250000 -1.000000 0.000000 0.000000 -1.000000
-0.250000 0.250000 1.000000 0.000000 -0.000000 1.000000
-0.500000 0.250000 1.000000 0.000000 -0.000000 1.000000
-0.500000 0.000000 1.000000 0.000000 -0.000000 1.000000
-0.250000 -0.000000 1.000000 0.000000 -0.000000 1.000000
-0.250000 0.750000 1.000000 0.000000 -0.000000 1.000000
-0.500000 0.750000 1.000000 0.000000 -0.000000 1.000000
-0.500000 0.500000 1.000000 0.000000 -0.000000 1.000000
-0.250000 0.500000 1.000000 0.000000 -0.000000 1.000000
-0.750000 0.750000 1.000000 0.000000 -0.000000 1.000000
-1.000000 0.750000 1.000000 0.000000 -0.000000 1.000000
-1.000000 0.500000 1.000000 0.000000 -0.000000 1.000000
-0.750000 0.500000 1.000000 0.000000 -0.000000 1.000000
0.750000 0.250000 1.000000 0.000000 -0.000000 1.000000
0.500000 0.250000 1.000000 0.000000 -0.000000 1.000000
0.500000 -0.000000 1.000000 0.000000 -0.000000 1.000000
0.750000 -0.000000 1.000000 0.000000 -0.000000 1.000000
0.750000 0.750000 1.000000 0.000000 -0.000000 1.000000
0.500000 0.750000 1.000000 0.000000 -0.000000 1.000000
0.500000 0.500000 1.000000 0.000000 -0.000000 1.000000
0.750000 0.500000 1.000000 0.000000 -0.000000 1.000000
0.250000 0.750000 1.000000 0.000000 -0.000000 1.000000
0.000000 0.750000 1.000000 0.000000 -0.000000 1.000000
0.000000 0.500000 1.000000 0.000000 -0.000000 1.000000
0.250000 0.500000 1.000000 0.000000 -0.000000 1.000000
0.750000 -0.750000 1.000000 0.000000 -0.000000 1.000000
0.500000 -0.750000 1.000000 0.000000 -0.000000 1.000000
0.499999 -1.000000 1.000000 0.000000 -0.000000 1.000000
0.749999 -1.000000 1.000000 0.000000 -0.000000 1.000000
0.750000 -0.250000 1.000000 0.000000 -0.000000 1.000000
0.500000 -0.250000 1.000000 0.000000 -0.000000 1.000000
0.500000 -0.500000 1.000000 0.000000 -0.000000 1.000000
0.750000 -0.500000 1.000000 0.000000 -0.000000 1.000000
0.250000 -0.250000 1.000000 0.000000 -0.000000 1.000000
-0.000000 -0.250000 1.000000 0.000000 -0.000000 1.000000
-0.000000 -0.500000 1.000000 0.000000 -0.000000 1.000000
0.250000 -0.500000 1.000000 0.000000 -0.000000 1.000000
1.000000 0.250000 0.250000 1.000000 -0.000000 -0.000000
1.000000 0.250000 0.500000 1.000000 -0.000000 -0.000000
1.000000 -0.000000 0.500000 1.000000 -0.000000 -0.000000
1.000000 -0.000000 0.250000 1.000000 -0.000000 -0.000000
1.000000 0.750000 0.250000 1.000000 -0.000000 -0.000000
1.000000 0.750000 0.500000 1.000000 -0.000000 -0.000000
1.000000 0.500000 0.500000 1.000000 -0.000000 -0.000000
1.000000 0.500000 0.250000 1.000000 -0.000000 -0.000000
1.000000 0.750000 0.750000 1.000000 -0.000000 -0.000000
1.000000 0.749999 1.000000 1.000000 -0.000000 -0.000000
1.000000 0.499999 1.000000 1.000000 -0.000000 -0.000000
1.000000 0.500000 0.750000 1.000000 -0.000000 -0.000000
1.000000 0.250000 -0.750000 1.000000 -0.000000 0.000000
1.000000 0.250000 -0.500000 1.000000 -0.000000 0.000000
1.000000 -0.000000 -0.500000 1.000000 -0.000000 0.000000
1.000000 -0.000000 -0.750000 1.000000 -0.000000 0.000000
1.000000 0.750000 -0.750000 1.000000 -0.000000 0.000000
1.000000 0.750000 -0.500000 1.000000 -0.000000 0.000000
1.000000 0.500000 -0.500000 1.000000 -0.000000 0.000000
1.000000 0.500000 -0.750000 1.000000 -0.000000 0.000000
1.000000 0.750000 -0.250000 1.000000 -0.000000 -0.000000
1.000000 0.750000 0.000000 1.000000 -0.000000 -0.000000
1.000000 0.500000 0.000000 1.000000 -0.000000 -0.000000
1.000000 0.500000 -0.250000 1.000000 -0.000000 -0.000000
1.000000 -0.750000 -0.750000 1.000000 -0.000000 0.000000
1.000000 -0.750000 -0.500000 1.000000 -0.000000 0.000000
1.000000 -1.000000 -0.500000 1.000000 -0.000000 0.000000
1.000000 -1.000000 -0.750000 1.000000 -0.000000 0.000000
1.000000 -0.250000 -0.750000 1.000000 -0.000000 0.000000
1.000000 -0.250000 -0.500000 1.000000 -0.000000 0.000000
1.000000 -0.500000 -0.500000 1.000000 -0.000000 0.000000
1.000000 -0.500000 -0.750000 1.000000 -0.000000 0.000000
1.000000 -0.250000 -0.250000 1.000000 -0.000000 0.000000
1.000000 -0.250000 0.000000 1.000000 -0.000000 0.000000
1.000000 -0.500000 0.000000 1.000000 -0.000000 0.000000
1.000000 -0.500000 -0.250000 1.000000 -0.000000 0.000000
0.250000 -1.000000 0.250000 -0.000000 -1.000000 -0.000000
0.250000 -1.000000 0.500000 -0.000000 -1.000000 -0.000000
-0.000000 -1.000000 0.500000 -0.000000 -1.000000 -0.000000
-0.000000 -1.000000 0.250000 -0.000000 -1.000000 -0.000000
0.750000 -1.000000 0.250000 -0.000000 -1.000000 -0.000000
0.750000 -1.000000 0.500000 -0.000000 -1.000000 -0.000000
0.500000 -1.000000 0.500000 -0.000000 -1.000000 -0.000000
0.500000 -1.000000 0.250000 -0.000000 -1.000000 -0.000000
0.749999 -1.000000 0.750000 -0.000000 -1.000000 -0.000000
0.749999 -1.000000 1.000000 -0.000000 -1.000000 -0.000000
0.499999 -1.000000 1.000000 -0.000000 -1.000000 -0.000000
0.499999 -1.000000 0.750000 -0.000000 -1.000000 -0.000000
0.250000 -1.000000 -0.750000 -0.000000 -1.000000 -0.000000
0.250000 -1.000000 -0.500000 -0.000000 -1.000000 -0.000000
-0.000000 -1.000000 -0.500000 -0.000000 -1.000000 -0.000000
-0.000000 -1.000000 -0.750000 -0.000000 -1.000000 -0.000000
0.750000 -1.000000 -0.750000 0.000000 -1.000000 0.000000
0.750000 -1.000000 -0.500000 0.000000 -1.000000 0.000000
0.500000 -1.000000 -0.500000 0.000000 -1.000000 0.000000
0.500000 -1.000000 -0.750000 0.000000 -1.000000 0.000000
0.750000 -1.000000 -0.250000 -0.000000 -1.000000 -0.000000
0.750000 -1.000000 0.000000 -0.000000 -1.000000 -0.000000
0.500000 -1.000000 0.000000 -0.000000 -1.000000 -0.000000
0.500000 -1.000000 -0.250000 -0.000000 -1.000000 -0.000000
-0.750000 -1.000000 -0.750000 -0.000000 -1.000000 -0.000000
-0.750000 -1.000000 -0.500000 -0.000000 -1.000000 -0.000000
-1.000000 -1.000000 -0.500000 -0.000000 -1.000000 -0.000000
-1.000000 -1.000000 -0.750000 -0.000000 -1.000000 -0.000000
-0.250000 -1.000000 -0.750000 0.000000 -1.000000 0.000000
-0.250000 -1.000000 -0.500000 0.000000 -1.000000 0.000000
-0.500000 -1.000000 -0.500000 0.000000 -1.000000 0.000000
-0.500000 -1.000000 -0.750000 0.000000 -1.000000 0.000000
-0.250000 -1.000000 -0.250000 -0.000000 -1.000000 -0.000000
-0.250000 -1.000000 0.000000 -0.000000 -1.000000 -0.000000
-0.500000 -1.000000 0.000000 -0.000000 -1.000000 -0.000000
-0.500000 -1.000000 -0.250000 -0.000000 -1.000000 -0.000000
-1.000000 -0.250000 0.250000 -1.000000 -0.000000 0.000000
-1.000000 -0.250000 0.500000 -1.000000 -0.000000 0.000000
-1.000000 0.000000 0.500000 -1.000000 -0.000000 0.000000
-1.000000 0.000000 0.250000 -1.000000 -0.000000 0.000000
-1.000000 -0.750000 0.250000 -1.000000 0.000000 0.000000
-1.000000 -0.750000 0.500000 -1.000000 0.000000 0.000000
-1.000000 -0.500000 0.500000 -1.000000 0.000000 0.000000
-1.000000 -0.500000 0.250000 -1.000000 0.000000 0.000000
-1.000000 -0.750000 0.750000 -1.000000 -0.000000 0.000000
-1.000000 -0.750000 1.000000 -1.000000 -0.000000 0.000000
-1.000000 -0.500000 1.000000 -1.000000 -0.000000 0.000000
-1.000000 -0.500000 0.750000 -1.000000 -0.000000 0.000000
-1.000000 -0.250000 -0.750000 -1.000000 0.000000 -0.000000
-1.000000 -0.250000 -0.500000 -1.000000 0.000000 -0.000000
-1.000000 0.000000 -0.500000 -1.000000 0.000000 -0.000000
-1.000000 0.000000 -0.750000 -1.000000 0.000000 -0.000000
-1.000000 -0.750000 -0.750000 -1.000000 0.000000 -0.000000
-1.000000 -0.750000 -0.500000 -1.000000 0.000000 -0.000000
-1.000000 -0.500000 -0.500000 -1.000000 0.000000 -0.000000
-1.000000 -0.500000 -0.750000 -1.000000 0.000000 -0.000000
-1.000000 -0.750000 -0.250000 -1.000000 0.000000 0.000000
-1.000000 -0.750000 0.000000 -1.000000 0.000000 0.000000
-1.000000 -0.500000 0.000000 -1.000000 0.000000 0.000000
-1.000000 -0.500000 -0.250000 -1.000000 0.000000 0.000000
-1.000000 0.750000 -0.750000 -1.000000 0.000000 -0.000000
-1.000000 0.750000 -0.500000 -1.000000 0.000000 -0.000000
-1.000000 1.000000 -0.500000 -1.000000 0.000000 -0.000000
-1.000000 1.000000 -0.750000 -1.000000 0.000000 -0.000000
-1.000000 0.250000 -0.750000 -1.000000 0.000000 -0.000000
-1.000000 0.250000 -0.500000 -1.000000 0.000000 -0.000000
-1.000000 0.500000 -0.500000 -1.000000 0.000000 -0.000000
-1.000000 0.500000 -0.750000 -1.000000 0.000000 -0.000000
-1.000000 0.250000 -0.250000 -1.000000 0.000000 0.000000
-1.000000 0.250000 0.000000 -1.000000 0.000000 0.000000
-1.000000 0.500000 0.000000 -1.000000 0.000000 0.000000
-1.000000 0.500000 -0.250000 -1.000000 0.000000 0.000000
0.250000 1.000000 -0.250000 0.000000 1.000000 -0.000000
0.250000 1.000000 -0.500000 0.000000 1.000000 -0.000000
0.000000 1.000000 -0.500000 0.000000 1.000000 -0.000000
0.000000 1.000000 -0.250000 0.000000 1.000000 -0.000000
0.750000 1.000000 -0.250000 0.000000 1.000000 0.000000
0.750000 1.000000 -0.500000 0.000000 1.000000 0.000000
0.500000 1.000000 -0.500000 0.000000 1.000000 0.000000
0.500000 1.000000 -0.250000 0.000000 1.000000 0.000000
0.750000 1.000000 -0.750000 0.000000 1.000000 0.000000
0.750000 1.000000 -1.000000 0.000000 1.000000 0.000000
0.500000 1.000000 -1.000000 0.000000 1.000000 0.000000
0.500000 1.000000 -0.750000 0.000000 1.000000 0.000000
0.250000 1.000000 0.750000 0.000000 1.000000 0.000000
0.250000 1.000000 0.500000 0.000000 1.000000 0.000000
0.000000 1.000000 0.500000 0.000000 1.000000 0.000000
0.000000 1.000000 0.750000 0.000000 1.000000 0.000000
0.750000 1.000000 0.750000 0.000000 1.000000 0.000000
0.750000 1.000000 0.500000 0.000000 1.000000 0.000000
0.500000 1.000000 0.500000 0.000000 1.000000 0.000000
0.500000 1.000000 0.750000 0.000000 1.000000 0.000000
0.750000 1.000000 0.250000 0.000000 1.000000 0.000000
0.750000 1.000000 0.000000 0.000000 1.000000 0.000000
0.500000 1.000000 0.000000 0.000000 1.000000 0.000000
0.500000 1.000000 0.250000 0.000000 1.000000 0.000000
-0.750000 1.000000 0.750000 0.000000 1.000000 0.000000
-0.750000 1.000000 0.500000 0.000000 1.000000 0.000000
-1.000000 1.000000 0.500000 0.000000 1.000000 0.000000
-1.000000 1.000000 0.750000 0.000000 1.000000 0.000000
-0.250000 1.000000 0.750000 0.000000 1.000000 0.000000
-0.250000 1.000000 0.500000 0.000000 1.000000 0.000000
-0.500000 1.000000 0.500000 0.000000 1.000000 0.000000
-0.500000 1.000000 0.750000 0.000000 1.000000 0.000000
-0.250000 1.000000 0.250000 0.000000 1.000000 0.000000
-0.250000 1.000000 0.000000 0.000000 1.000000 0.000000
-0.500000 1.000000 0.000000 0.000000 1.000000 0.000000
-0.500000 1.000000 0.250000 0.000000 1.000000 0.000000
-0.750000 1.000000 -0.250000 -0.000000 1.000000 0.000000
-0.750000 1.000000 -0.500000 -0.000000 1.000000 0.000000
-1.000000 1.000000 -0.500000 -0.000000 1.000000 0.000000
-1.000000 1.000000 -0.250000 -0.000000 1.000000 0.000000
-0.250000 1.000000 -0.250000 0.000000 1.000000 0.000000
-0.250000 1.000000 -0.500000 0.000000 1.000000 0.000000
-0.500000 1.000000 -0.500000 0.000000 1.000000 0.000000
-0.500000 1.000000 -0.250000 0.000000 1.000000 0.000000
-0.250000 1.000000 -0.750000 0.000000 1.000000 0.000000
-0.250000 1.000000 -1.000000 0.000000 1.000000 0.000000
-0.500000 1.000000 -1.000000 0.000000 1.000000 0.000000
-0.500000 1.000000 -0.750000 0.000000 1.000000 0.000000
-1.000000 0.750000 0.250000 -1.000000 0.000000 -0.000000
-1.000000 0.750000 0.500000 -1.000000 0.000000 -0.000000
-1.000000 1.000000 0.500000 -1.000000 0.000000 -0.000000
-1.000000 1.000000 0.250000 -1.000000 0.000000 -0.000000
-1.000000 0.250000 0.250000 -1.000000 0.000000 -0.000000
-1.000000 0.250000 0.500000 -1.000000 0.000000 -0.000000
-1.000000 0.500000 0.500000 -1.000000 0.000000 -0.000000
-1.000000 0.500000 0.250000 -1.000000 0.000000 -0.000000
-1.000000 0.250000 0.750000 -1.000000 -0.000000 0.000000
-1.000000 0.250000 1.000000 -1.000000 -0.000000 0.000000
-1.000000 0.500000 1.000000 -1.000000 -0.000000 0.000000
-1.000000 0.500000 0.750000 -1.000000 -0.000000 0.000000
-0.750000 -1.000000 0.250000 -0.000000 -1.000000 0.000000
-0.750000 -1.000000 0.500000 -0.000000 -1.000000 0.000000
-1.000000 -1.000000 0.500000 -0.000000 -1.000000 0.000000
-1.000000 -1.000000 0.250000 -0.000000 -1.000000 0.000000
-0.250000 -1.000000 0.250000 -0.000000 -1.000000 -0.000000
-0.250000 -1.000000 0.500000 -0.000000 -1.000000 -0.000000
-0.500000 -1.000000 0.500000 -0.000000 -1.000000 -0.000000
-0.500000 -1.000000 0.250000 -0.000000 -1.000000 -0.000000
-0.250000 -1.000000 0.750000 -0.000000 -1.000000 -0.000000
-0.250001 -1.000000 1.000000 -0.000000 -1.000000 -0.000000
-0.500000 -1.000000 1.000000 -0.000000 -1.000000 -0.000000
-0.500000 -1.000000 0.750000 -0.000000 -1.000000 -0.000000
1.000000 -0.750000 0.250000 1.000000 -0.000000 0.000000
1.000000 -0.750000 0.500000 1.000000 -0.000000 0.000000
1.000000 -1.000000 0.500000 1.000000 -0.000000 0.000000
1.000000 -1.000000 0.250000 1.000000 -0.000000 0.000000
1.000000 -0.250000 0.250000 1.000000 -0.000000 0.000000
1.000000 -0.250000 0.500000 1.000000 -0.000000 0.000000
1.000000 -0.500000 0.500000 1.000000 -0.000000 0.000000
1.000000 -0.500000 0.250000 1.000000 -0.000000 0.000000
1.000000 -0.250000 0.750000 1.000000 -0.000000 -0.000000
1.000000 -0.250001 1.000000 1.000000 -0.000000 -0.000000
1.000000 -0.500001 1.000000 1.000000 -0.000000 -0.000000
1.000000 -0.500000 0.750000 1.000000 -0.000000 -0.000000
-0.250000 -0.750000 1.000000 0.000000 -0.000000 1.000000
-0.500000 -0.750000 1.000000 0.000000 -0.000000 1.000000
-0.500000 -1.000000 1.000000 0.000000 -0.000000 1.000000
-0.250001 -1.000000 1.000000 0.000000 -0.000000 1.000000
-0.250000 -0.250000 1.000000 0.000000 -0.000000 1.000000
-0.500000 -0.250000 1.000000 0.000000 -0.000000 1.000000
-0.500000 -0.500000 1.000000 0.000000 -0.000000 1.000000
-0.250000 -0.500000 1.000000 0.000000 -0.000000 1.000000
-0.750000 -0.250000 1.000000 0.000000 -0.000000 1.000000
-1.000000 -0.250000 1.000000 0.000000 -0.000000 1.000000
-1.000000 -0.500000 1.000000 0.000000 -0.000000 1.000000
-0.750000 -0.500000 1.000000 0.000000 -0.000000 1.000000
-0.750000 -0.250000 -1.000000 0.000000 0.000000 -1.000000
-0.750000 -0.500000 -1.000000 0.000000 0.000000 -1.000000
-1.000000 -0.500000 -1.000000 0.000000 0.000000 -1.000000
-1.000000 -0.250000 -1.000000 0.000000 0.000000 -1.000000
-0.250000 -0.250000 -1.000000 0.000000 0.000000 -1.000000
-0.250000 -0.500000 -1.000000 0.000000 0.000000 -1.000000
-0.500000 -0.500000 -1.000000 0.000000 0.000000 -1.000000
-0.500000 -0.250000 -1.000000 0.000000 0.000000 -1.000000
-0.250000 -0.750000 -1.000000 0.000000 0.000000 -1.000000
-0.250000 -1.000000 -1.000000 0.000000 0.000000 -1.000000
-0.500000 -1.000000 -1.000000 0.000000 0.000000 -1.000000
-0.500000 -0.750000 -1.000000 0.000000 0.000000 -1.000000
-0.250000 1.000000 1.000000 0.000000 1.000000 0.000000
-0.500000 1.000000 1.000000 0.000000 1.000000 0.000000
0.000000 1.000000 1.000000 0.000000 1.000000 0.000000
-0.750000 1.000000 1.000000 0.000000 1.000000 0.000000
-1.000000 1.000000 1.000000 0.000000 1.000000 0.000000
1.000000 1.000000 0.500000 0.000000 1.000000 0.000000
1.000000 1.000000 0.250000 0.000000 1.000000 0.000000
1.000000 1.000000 0.000000 0.000000 1.000000 0.000000
0.750000 1.000000 1.000000 0.000000 1.000000 0.000000
0.500000 1.000000 1.000000 0.000000 1.000000 0.000000
1.000000 0.999999 1.000000 0.000000 1.000000 0.000000
1.000000 1.000000 0.750000 0.000000 1.000000 0.000000
0.250000 1.000000 1.000000 0.000000 1.000000 0.000000
1.000000 1.000000 -0.500000 0.000000 1.000000 0.000000
1.000000 1.000000 -0.750000 0.000000 1.000000 0.000000
1.000000 1.000000 -1.000000 0.000000 1.000000 0.000000
1.000000 1.000000 -0.250000 0.000000 1.000000 0.000000
-1.000000 0.250000 -1.000000 -1.000000 0.000000 0.000000
-1.000000 0.500000 -1.000000 -1.000000 0.000000 0.000000
-1.000000 0.000000 -1.000000 -1.000000 0.000000 0.000000
-1.000000 0.750000 -1.000000 -1.000000 0.000000 0.000000
-1.000000 1.000000 -1.000000 -1.000000 0.000000 0.000000
-1.000000 -1.000000 -0.500000 -1.000000 -0.000000 0.000000
-1.000000 -1.000000 -0.250000 -1.000000 -0.000000 0.000000
-1.000000 -1.000000 0.000000 -1.000000 -0.000000 0.000000
-1.000000 -0.750000 -1.000000 -1.000000 0.000000 -0.000000
-1.000000 -0.500000 -1.000000 -1.000000 0.000000 -0.000000
-1.000000 -1.000000 -1.000000 -1.000000 0.000000 -0.000000
-1.000000 -1.000000 -0.750000 -1.000000 0.000000 -0.000000
-1.000000 -0.250000 -1.000000 -1.000000 0.000000 0.000000
-1.000000 -1.000000 0.500000 -1.000000 -0.000000 0.000000
-1.000000 -1.000000 0.750000 -1.000000 -0.000000 0.000000
-1.000000 -1.000000 1.000000 -1.000000 0.000000 -0.000000
-1.000000 -1.000000 0.250000 -1.000000 -0.000000 0.000000
-0.250000 -1.000000 -1.000000 0.000000 -1.000000 0.000000
-0.500000 -1.000000 -1.000000 0.000000 -1.000000 0.000000
0.000000 -1.000000 -1.000000 0.000000 -1.000000 0.000000
-0.750000 -1.000000 -1.000000 -0.000000 -1.000000 0.000000
-1.000000 -1.000000 -1.000000 -0.000000 -1.000000 0.000000
1.000000 -1.000000 -0.500000 -0.000000 -1.000000 -0.000000
1.000000 -1.000000 -0.250000 -0.000000 -1.000000 -0.000000
1.000000 -1.000000 0.000000 -0.000000 -1.000000 -0.000000
0.750000 -1.000000 -1.000000 -0.000000 -1.000000 -0.000000
0.500000 -1.000000 -1.000000 -0.000000 -1.000000 -0.000000
1.000000 -1.000000 -1.000000 0.000000 -1.000000 0.000000
1.000000 -1.000000 -0.750000 0.000000 -1.000000 0.000000
0.250000 -1.000000 -1.000000 -0.000000 -1.000000 -0.000000
1.000000 -1.000000 0.500000 -0.000000 -1.000000 -0.000000
0.999999 -1.000000 0.750000 -0.000000 -1.000000 -0.000000
0.999999 -1.000001 1.000000 -0.000000 -1.000000 -0.000000
1.000000 -1.000000 0.250000 -0.000000 -1.000000 -0.000000
1.000000 -0.250000 -1.000000 1.000000 -0.000000 0.000000
1.000000 -0.500000 -1.000000 1.000000 -0.000000 0.000000
1.000000 -0.000000 -1.000000 1.000000 -0.000000 0.000000
1.000000 -0.750000 -1.000000 1.000000 0.000000 0.000000
1.000000 -1.000000 -1.000000 1.000000 0.000000 0.000000
1.000000 1.000000 -0.500000 1.000000 -0.000000 -0.000000
1.000000 1.000000 -0.250000 1.000000 -0.000000 -0.000000
1.000000 1.000000 0.000000 1.000000 -0.000000 -0.000000
1.000000 0.750000 -1.000000 1.000000 -0.000000 0.000000
1.000000 0.500000 -1.000000 1.000000 -0.000000 0.000000
1.000000 1.000000 -1.000000 1.000000 -0.000000 0.000000
1.000000 1.000000 -0.750000 1.000000 -0.000000 0.000000
1.000000 0.250000 -1.000000 1.000000 -0.000000 0.000000
1.000000 1.000000 0.500000 1.000000 -0.000000 -0.000000
1.000000 1.000000 0.750000 1.000000 -0.000000 -0.000000
1.000000 0.999999 1.000000 1.000000 -0.000000 -0.000000
1.000000 1.000000 0.250000 1.000000 -0.000000 0.000000
1.000000 -0.250001 1.000000 0.000000 -0.000000 1.000000
1.000000 -0.500001 1.000000 0.000000 -0.000000 1.000000
1.000000 -0.000001 1.000000 0.000000 -0.000000 1.000000
1.000000 -0.750001 1.000000 0.000000 -0.000000 1.000000
0.999999 -1.000001 1.000000 0.000000 -0.000000 1.000000
0.500000 1.000000 1.000000 0.000000 -0.000000 1.000000
0.250000 1.000000 1.000000 0.000000 -0.000000 1.000000
0.000000 1.000000 1.000000 0.000000 -0.000000 1.000000
1.000000 0.749999 1.000000 0.000000 -0.000000 1.000000
1.000000 0.499999 1.000000 0.000000 -0.000000 1.000000
1.000000 0.999999 1.000000 0.000000 -0.000000 1.000000
0.750000 1.000000 1.000000 0.000000 -0.000000 1.000000
1.000000 0.249999 1.000000 0.000000 -0.000000 1.000000
-0.500000 1.000000 1.000000 0.000000 -0.000000 1.000000
-0.750000 1.000000 1.000000 0.000000 -0.000000 1.000000
-1.000000 1.000000 1.000000 0.000000 -0.000000 1.000000
-0.250000 1.000000 1.000000 0.000000 -0.000000 1.000000
-0.250000 1.000000 -1.000000 0.000000 0.000000 -1.000000
-0.500000 1.000000 -1.000000 0.000000 0.000000 -1.000000
0.000000 1.000000 -1.000000 0.000000 0.000000 -1.000000
-0.750000 1.000000 -1.000000 0.000000 0.000000 -1.000000
-1.000000 1.000000 -1.000000 0.000000 0.000000 -1.000000
1.000000 0.500000 -1.000000 0.000000 0.000000 -1.000000
1.000000 0.250000 -1.000000 0.000000 0.000000 -1.000000
1.000000 -0.000000 -1.000000 0.000000 0.000000 -1.000000
0.750000 1.000000 -1.000000 0.000000 0.000000 -1.000000
0.500000 1.000000 -1.000000 0.000000 0.000000 -1.000000
1.000000 1.000000 -1.000000 0.000000 0.000000 -1.000000
1.000000 0.750000 -1.000000 0.000000 0.000000 -1.000000
0.250000 1.000000 -1.000000 0.000000 0.000000 -1.000000
1.000000 -0.500000 -1.000000 0.000000 0.000000 -1.000000
1.000000 -0.750000 -1.000000 0.000000 0.000000 -1.000000
1.000000 -1.000000 -1.000000 0.000000 0.000000 -1.000000
1.000000 -0.250000 -1.000000 0.000000 0.000000 -1.000000
1.000000 0.500000 0.500000 1.000000 -0.000001 -0.000000
1.000000 0.500000 0.750000 1.000000 -0.000001 -0.000000
1.000000 0.250000 0.750000 1.000000 -0.000001 -0.000000
1.000000 0.250000 0.500000 1.000000 -0.000001 -0.000000
1.000000 0.499999 1.000000 1.000000 -0.000001 -0.000000
1.000000 0.249999 1.000000 1.000000 -0.000001 -0.000000
1.000000 -0.750000 0.750000 1.000000 -0.000000 0.000000
0.999999 -1.000000 0.750000 1.000000 -0.000000 0.000000
1.000000 -0.750001 1.000000 1.000000 -0.000000 -0.000000
4 0 1 2 3
4 4 5 6 7
4 8 9 10 11
4 12 13 14 15
4 16 17 18 19
4 20 21 22 23
4 24 25 26 27
4 28 29 30 31
4 32 33 34 35
4 36 37 38 39
4 40 41 42 43
4 44 45 46 47
4 48 49 50 51
4 52 53 54 55
4 56 57 58 59
4 60 61 62 63
4 64 65 66 67
4 68 69 70 71
4 72 73 74 75
4 76 77 78 79
4 80 81 82 83
4 84 85 86 87
4 88 89 90 91
4 92 93 94 95
4 96 97 98 99
4 100 101 102 103
4 104 105 106 107
4 108 109 110 111
4 112 113 114 115
4 116 117 118 119
4 120 121 122 123
4 124 125 126 127
4 128 129 130 131
4 132 133 134 135
4 136 137 138 139
4 140 141 142 143
4 144 145 146 147
4 148 149 150 151
4 152 153 154 155
4 156 157 158 159
4 160 161 162 163
4 164 165 166 167
4 168 169 170 171
4 172 173 174 175
4 176 177 178 179
4 180 181 182 183
4 184 185 186 187
4 188 189 190 191
4 192 193 194 195
4 196 197 198 199
4 200 201 202 203
4 204 205 206 207
4 208 209 210 211
4 212 213 214 215
4 216 217 218 219
4 220 221 222 223
4 224 225 226 227
4 228 229 230 231
4 232 233 234 235
4 236 237 238 239
4 240 241 242 243
4 244 245 246 247
4 248 249 250 251
4 252 253 254 255
4 256 257 258 259
4 260 261 262 263
4 264 265 266 267
4 268 269 270 271
4 272 273 274 275
4 276 277 278 279
4 280 281 282 283
4 284 285 286 287
4 288 289 290 291
4 292 293 294 295
4 296 297 298 299
4 300 301 302 303
4 304 305 306 307
4 308 309 310 311
4 312 313 314 315
4 316 317 318 319
4 320 321 322 323
4 324 325 326 327
4 328 329 330 331
4 332 333 334 335
4 336 337 338 339
4 340 341 342 343
4 344 345 346 347
4 348 349 350 351
4 352 353 354 355
4 356 357 358 359
4 360 361 362 363
4 364 365 366 367
4 368 369 370 371
4 372 373 374 375
4 376 377 378 379
4 380 381 382 383
4 377 380 383 378
4 98 95 380 377
4 95 94 381 380
4 129 376 379 130
4 90 99 376 129
4 99 98 377 376
4 85 372 375 86
4 130 379 372 85
4 379 378 373 372
4 365 368 371 366
4 134 83 368 365
4 83 82 369 368
4 165 364 367 166
4 78 135 364 165
4 135 134 365 364
4 73 360 363 74
4 166 367 360 73
4 367 366 361 360
4 353 356 359 354
4 170 71 356 353
4 71 70 357 356
4 201 352 355 202
4 66 171 352 201
4 171 170 353 352
4 61 348 351 62
4 202 355 348 61
4 355 354 349 348
4 341 344 347 342
4 206 59 344 341
4 59 58 345 344
4 237 340 343 238
4 54 207 340 237
4 207 206 341 340
4 49 336 339 50
4 238 343 336 49
4 343 342 337 336
4 329 332 335 330
4 242 47 332 329
4 47 46 333 332
4 273 328 331 274
4 42 243 328 273
4 243 242 329 328
4 37 324 327 38
4 274 331 324 37
4 331 330 325 324
4 317 320 323 318
4 278 35 320 317
4 35 34 321 320
4 309 316 319 310
4 30 279 316 309
4 279 278 317 316
4 25 312 315 26
4 310 319 312 25
4 319 318 313 312
4 305 308 311 306
4 290 31 308 305
4 31 30 309 308
4 384 304 307 385
4 386 291 304 384
4 291 290 305 304
4 387 300 303 388
4 385 307 300 387
4 307 306 301 300
4 293 296 299 294
4 389 390 296 293
4 390 391 297 296
4 392 292 295 393
4 394 395 292 392
4 395 389 293 292
4 396 288 291 386
4 393 295 288 396
4 295 294 289 288
4 281 284 287 282
4 397 398 284 281
4 398 399 285 284
4 297 280 283 298
4 391 400 280 297
4 400 397 281 280
4 29 276 279 30
4 298 283 276 29
4 283 282 277 276
4 269 272 275 270
4 254 43 272 269
4 43 42 273 272
4 401 268 271 402
4 403 255 268 401
4 255 254 269 268
4 404 264 267 405
4 402 271 264 404
4 271 270 265 264
4 257 260 263 258
4 406 407 260 257
4 407 408 261 260
4 409 256 259 410
4 411 412 256 409
4 412 406 257 256
4 413 252 255 403
4 410 259 252 413
4 259 258 253 252
4 245 248 251 246
4 414 415 248 245
4 415 416 249 248
4 261 244 247 262
4 408 417 244 261
4 417 414 245 244
4 41 240 243 42
4 262 247 240 41
4 247 246 241 240
4 233 236 239 234
4 218 55 236 233
4 55 54 237 236
4 418 232 235 419
4 420 219 232 418
4 219 218 233 232
4 421 228 231 422
4 419 235 228 421
4 235 234 229 228
4 221 224 227 222
4 423 424 224 221
4 424 425 225 224
4 426 220 223 427
4 428 429 220 426
4 429 423 221 220
4 430 216 219 420
4 427 223 216 430
4 223 222 217 216
4 209 212 215 210
4 431 432 212 209
4 432 433 213 212
4 225 208 211 226
4 425 434 208 225
4 434 431 209 208
4 53 204 207 54
4 226 211 204 53
4 211 210 205 204
4 197 200 203 198
4 182 67 200 197
4 67 66 201 200
4 435 196 199 436
4 437 183 196 435
4 183 182 197 196
4 438 192 195 439
4 436 199 192 438
4 199 198 193 192
4 185 188 191 186
4 440 441 188 185
4 441 442 189 188
4 443 184 187 444
4 445 446 184 443
4 446 440 185 184
4 447 180 183 437
4 444 187 180 447
4 187 186 181 180
4 173 176 179 174
4 448 449 176 173
4 449 450 177 176
4 189 172 175 190
4 442 451 172 189
4 451 448 173 172
4 65 168 171 66
4 190 175 168 65
4 175 174 169 168
4 161 164 167 162
4 146 79 164 161
4 79 78 165 164
4 452 160 163 453
4 454 147 160 452
4 147 146 161 160
4 455 156 159 456
4 453 163 156 455
4 163 162 157 156
4 149 152 155 150
4 457 458 152 149
4 458 459 153 152
4 460 148 151 461
4 462 463 148 460
4 463 457 149 148
4 464 144 147 454
4 461 151 144 464
4 151 150 145 144
4 137 140 143 138
4 465 466 140 137
4 466 467 141 140
4 153 136 139 154
4 459 468 136 153
4 468 465 137 136
4 77 132 135 78
4 154 139 132 77
4 139 138 133 132
4 125 128 131 126
4 110 91 128 125
4 91 90 129 128
4 469 124 127 470
4 471 111 124 469
4 111 110 125 124
4 472 120 123 473
4 470 127 120 472
4 127 126 121 120
4 113 116 119 114
4 474 475 116 113
4 475 476 117 116
4 477 112 115 478
4 479 480 112 477
4 480 474 113 112
4 481 108 111 471
4 478 115 108 481
4 115 114 109 108
4 101 104 107 102
4 482 483 104 101
4 483 484 105 104
4 117 100 103 118
4 476 485 100 117
4 485 482 101 100
4 89 96 99 90
4 118 103 96 89
4 103 102 97 96
4 97 92 95 98
4 102 107 92 97
4 107 106 93 92
4 109 88 91 110
4 114 119 88 109
4 119 118 89 88
4 121 84 87 122
4 126 131 84 121
4 131 130 85 84
4 133 80 83 134
4 138 143 80 133
4 143 142 81 80
4 145 76 79 146
4 150 155 76 145
4 155 154 77 76
4 157 72 75 158
4 162 167 72 157
4 167 166 73 72
4 169 68 71 170
4 486 487 488 489
4 487 490 491 488
4 181 64 67 182
4 186 191 64 181
4 191 190 65 64
4 193 60 63 194
4 198 203 60 193
4 203 202 61 60
4 205 56 59 206
4 210 215 56 205
4 215 214 57 56
4 217 52 55 218
4 222 227 52 217
4 227 226 53 52
4 229 48 51 230
4 234 239 48 229
4 239 238 49 48
4 241 44 47 242
4 246 251 44 241
4 251 250 45 44
4 253 40 43 254
4 258 263 40 253
4 263 262 41 40
4 265 36 39 266
4 270 275 36 265
4 275 274 37 36
4 277 32 35 278
4 282 287 32 277
4 287 286 33 32
4 289 28 31 290
4 294 299 28 289
4 299 298 29 28
4 301 24 27 302
4 306 311 24 301
4 311 310 25 24
4 313 20 23 314
4 318 323 20 313
4 323 322 21 20
4 325 16 19 326
4 330 335 16 325
4 335 334 17 16
4 337 12 15 338
4 342 347 12 337
4 347 346 13 12
4 349 492 493 350
4 354 359 492 349
4 359 358 494 492
4 361 4 7 362
4 366 371 4 361
4 371 370 5 4
4 373 0 3 374
4 378 383 0 373
4 383 382 1 0
